<svg width="116" height="100" viewBox="0 0 116 100" fill="none" xmlns="http://www.w3.org/2000/svg">
<path fill-rule="evenodd" clip-rule="evenodd" d="M42.9831 52.1595C43.0792 51.9521 43.0303 51.7146 42.8717 51.5475C38.8032 47.2594 35.8952 41.9216 34.621 36.0113C34.4945 35.4248 33.6258 35.3265 33.3904 35.8803L21.5627 63.6981C21.4077 64.0627 21.6563 64.4619 22.0618 64.4747C24.2194 64.5428 30.2785 64.3999 35.2459 61.0993C40.0803 57.8871 42.4011 53.4151 42.9831 52.1595Z" fill="url(#paint0_linear)"/>
<path fill-rule="evenodd" clip-rule="evenodd" d="M40.0919 38.5444L25.3004 0.808342C25.1481 0.41981 25.4243 0.000820501 25.8412 9.20827e-05C28.0191 -0.00371301 33.838 0.105224 37.1085 1.30152C40.7017 2.61587 43.5533 5.87101 44.6833 8.75024L45.2896 10.2949C45.2897 10.2952 45.2901 10.2952 45.2902 10.295C45.2904 10.2948 45.2908 10.2949 45.2909 10.2951L46.1871 12.5816L48.052 17.3329L54.8283 34.6208C56.9481 39.3461 61.6491 42.6752 67.1654 42.7752C74.7802 42.9131 81.065 36.8452 81.2028 29.222C81.3406 21.5988 75.2792 15.3071 67.6644 15.1691C62.7054 15.0793 58.3105 17.6214 55.81 21.5109C55.5303 21.946 54.8495 21.9059 54.6607 21.4243L49.0516 7.11424C48.9571 6.87316 49.027 6.59811 49.2281 6.43526C54.3323 2.30291 60.8617 -0.122966 67.9385 0.00524639C83.919 0.294766 96.6392 13.4984 96.35 29.4964C96.0608 45.4944 82.8717 58.2286 66.8912 57.9391C54.4456 57.7136 43.9774 49.6553 40.0919 38.5444Z" fill="url(#paint1_linear)"/>
<path d="M39.594 38.5065L24.3225 0.0299813C24.3225 0.0299813 32.4403 -0.295146 36.5571 1.19594C40.1839 2.50951 43.0621 5.89712 44.2028 8.77465L44.8889 10.4936C44.8967 10.5078 45.0523 10.8966 45.0585 10.9122L47.4709 16.9363L47.6029 17.325L54.4232 34.4257C56.5522 39.174 61.3096 42.7817 66.8975 42.7817C85.6656 42.7817 99.3936 25.4867 91.9389 13.6328C96.644 21.1144 96.3315 28.434 96.3548 29.3732C96.0629 45.3617 82.7505 58.2285 66.6208 57.9391C54.0833 57.7142 43.5339 49.5775 39.594 38.5065Z" fill="url(#paint2_linear)"/>
<path d="M30.1233 74.7662C31.2713 74.7662 32.2683 74.9514 33.1143 75.3216C33.9602 75.6803 34.6128 76.201 35.072 76.8837C35.5313 77.5548 35.7609 78.3475 35.7609 79.2616C35.7609 80.1757 35.5313 80.9683 35.072 81.6394C34.6128 82.3105 33.9602 82.8312 33.1143 83.2015C32.2683 83.5602 31.2713 83.7395 30.1233 83.7395H27.9117V86.9158H24.3225V74.7662H30.1233ZM29.9057 81.0319C30.6429 81.0319 31.1988 80.8815 31.5735 80.5807C31.9481 80.2682 32.1354 79.8285 32.1354 79.2616C32.1354 78.6946 31.9481 78.2549 31.5735 77.9425C31.1988 77.6301 30.6429 77.4738 29.9057 77.4738H27.9117V81.0319H29.9057Z" fill="#333333"/>
<path d="M51.9012 84.5553H46.5355L45.5385 86.9158H41.8768L47.4781 74.7662H51.0129L56.6324 86.9158H52.8982L51.9012 84.5553ZM50.8498 82.0212L49.2183 78.1334L47.5869 82.0212H50.8498Z" fill="#333333"/>
<path d="M71.4977 86.9158L68.8693 83.1494L66.2771 86.9158H62.1803L66.8027 80.7716L62.3797 74.7662H66.4221L68.9599 78.2722L71.4615 74.7662H75.3407L70.9177 80.6327L75.6308 86.9158H71.4977Z" fill="#333333"/>
<path d="M89.6257 82.5593V86.9158H86.0365V82.5072L81.1964 74.7662H84.9851L87.9942 79.5913L91.0034 74.7662H94.4838L89.6257 82.5593Z" fill="#333333"/>
<path d="M1.67704 95.327H0V94.4703H4.2938V95.327H2.61676V99.922H1.67704V95.327Z" fill="#333333"/>
<path d="M10.4121 98.6604H7.88212L7.38335 99.922H6.41471L8.69173 94.4703H9.61699L11.9012 99.922H10.9181L10.4121 98.6604ZM10.1013 97.866L9.14713 95.4828L8.20018 97.866H10.1013Z" fill="#333333"/>
<path d="M18.3149 97.1339H19.204V99.3068C18.9438 99.53 18.6402 99.7014 18.2932 99.8208C17.9462 99.9402 17.5896 99.9999 17.2234 99.9999C16.7077 99.9999 16.2427 99.8805 15.8282 99.6417C15.4138 99.3976 15.0885 99.0628 14.8524 98.637C14.6162 98.2113 14.4982 97.731 14.4982 97.1962C14.4982 96.6614 14.6162 96.1811 14.8524 95.7554C15.0885 95.3296 15.4138 94.9973 15.8282 94.7585C16.2475 94.5145 16.7174 94.3925 17.2378 94.3925C17.6619 94.3925 18.0474 94.4677 18.3944 94.6183C18.7414 94.7689 19.0329 94.9895 19.269 95.2803L18.6763 95.9034C18.2908 95.488 17.8257 95.2803 17.2812 95.2803C16.9246 95.2803 16.6065 95.3608 16.327 95.5217C16.0523 95.6827 15.8355 95.9086 15.6764 96.1993C15.5222 96.4901 15.4451 96.8224 15.4451 97.1962C15.4451 97.5596 15.5222 97.8867 15.6764 98.1775C15.8355 98.4683 16.0523 98.6967 16.327 98.8629C16.6065 99.029 16.9222 99.1121 17.274 99.1121C17.6691 99.1121 18.0161 99.0186 18.3149 98.8317V97.1339Z" fill="#333333"/>
<path d="M22.8289 94.4703H23.7686V99.0654H26.4143V99.922H22.8289V94.4703Z" fill="#333333"/>
<path d="M29.5416 94.4703H30.4813V99.922H29.5416V94.4703Z" fill="#333333"/>
<path d="M38.7316 94.4703V99.922H37.9581L35.1679 96.2305V99.922H34.2354V94.4703H35.0088L37.7991 98.1619V94.4703H38.7316Z" fill="#333333"/>
<path d="M46.2679 99.0731V99.922H42.4729V94.4703H46.1667V95.3192H43.4126V96.7367H45.8559V97.57H43.4126V99.0731H46.2679Z" fill="#333333"/>
<path d="M57.5394 97.1339H58.4285V99.3068C58.1683 99.53 57.8647 99.7014 57.5177 99.8208C57.1707 99.9402 56.8141 99.9999 56.4479 99.9999C55.9322 99.9999 55.4672 99.8805 55.0528 99.6417C54.6383 99.3976 54.313 99.0628 54.0769 98.637C53.8408 98.2113 53.7227 97.731 53.7227 97.1962C53.7227 96.6614 53.8408 96.1811 54.0769 95.7554C54.313 95.3296 54.6383 94.9973 55.0528 94.7585C55.472 94.5145 55.9419 94.3925 56.4623 94.3925C56.8864 94.3925 57.272 94.4677 57.6189 94.6183C57.9659 94.7689 58.2575 94.9895 58.4936 95.2803L57.9008 95.9034C57.5153 95.488 57.0503 95.2803 56.5057 95.2803C56.1491 95.2803 55.831 95.3608 55.5515 95.5217C55.2769 95.6827 55.06 95.9086 54.901 96.1993C54.7468 96.4901 54.6697 96.8224 54.6697 97.1962C54.6697 97.5596 54.7468 97.8867 54.901 98.1775C55.06 98.4683 55.2769 98.6967 55.5515 98.8629C55.831 99.029 56.1467 99.1121 56.4985 99.1121C56.8937 99.1121 57.2406 99.0186 57.5394 98.8317V97.1339Z" fill="#333333"/>
<path d="M64.4172 99.9999C63.9015 99.9999 63.4365 99.8805 63.022 99.6417C62.6076 99.3976 62.2823 99.0628 62.0462 98.637C61.81 98.2061 61.692 97.7258 61.692 97.1962C61.692 96.6666 61.81 96.1889 62.0462 95.7632C62.2823 95.3322 62.6076 94.9973 63.022 94.7585C63.4365 94.5145 63.9015 94.3925 64.4172 94.3925C64.9328 94.3925 65.3978 94.5145 65.8123 94.7585C66.2267 94.9973 66.552 95.3296 66.7881 95.7554C67.0243 96.1811 67.1423 96.6614 67.1423 97.1962C67.1423 97.731 67.0243 98.2113 66.7881 98.637C66.552 99.0628 66.2267 99.3976 65.8123 99.6417C65.3978 99.8805 64.9328 99.9999 64.4172 99.9999ZM64.4172 99.1121C64.7545 99.1121 65.0581 99.0316 65.328 98.8706C65.5978 98.7045 65.8099 98.476 65.9641 98.1853C66.1183 97.8893 66.1954 97.5596 66.1954 97.1962C66.1954 96.8327 66.1183 96.5056 65.9641 96.2149C65.8099 95.9189 65.5978 95.6905 65.328 95.5295C65.0581 95.3634 64.7545 95.2803 64.4172 95.2803C64.0798 95.2803 63.7762 95.3634 63.5063 95.5295C63.2365 95.6905 63.0244 95.9189 62.8702 96.2149C62.716 96.5056 62.6389 96.8327 62.6389 97.1962C62.6389 97.5596 62.716 97.8893 62.8702 98.1853C63.0244 98.476 63.2365 98.7045 63.5063 98.8706C63.7762 99.0316 64.0798 99.1121 64.4172 99.1121Z" fill="#333333"/>
<path d="M74.3189 99.0731V99.922H70.5239V94.4703H74.2177V95.3192H71.4636V96.7367H73.9069V97.57H71.4636V99.0731H74.3189Z" fill="#333333"/>
<path d="M79.3205 99.9999C78.9302 99.9999 78.5519 99.9402 78.1856 99.8208C77.8242 99.7014 77.5375 99.543 77.3254 99.3457L77.6507 98.5591C77.8579 98.7357 78.1109 98.881 78.4097 98.9953C78.7133 99.1043 79.0169 99.1588 79.3205 99.1588C79.6964 99.1588 79.9759 99.0939 80.159 98.9641C80.347 98.8343 80.4409 98.663 80.4409 98.4501C80.4409 98.2943 80.3879 98.1671 80.2819 98.0685C80.1807 97.9646 80.0506 97.8841 79.8916 97.827C79.7325 97.7699 79.5157 97.705 79.241 97.6323C78.8555 97.5337 78.5422 97.435 78.3013 97.3364C78.0651 97.2377 77.8603 97.0846 77.6869 96.8769C77.5182 96.664 77.4339 96.3784 77.4339 96.0202C77.4339 95.719 77.5085 95.4465 77.6579 95.2024C77.8121 94.9532 78.0411 94.7559 78.3447 94.6105C78.6531 94.4651 79.029 94.3925 79.4723 94.3925C79.7807 94.3925 80.0843 94.434 80.3831 94.5171C80.6819 94.6001 80.9397 94.7196 81.1566 94.8753L80.8602 95.6619C80.6385 95.5217 80.4072 95.4153 80.1663 95.3426C79.9253 95.2699 79.6916 95.2336 79.4651 95.2336C79.094 95.2336 78.8169 95.3011 78.6338 95.4361C78.4555 95.5711 78.3663 95.7502 78.3663 95.9735C78.3663 96.1292 78.4169 96.2564 78.5181 96.3551C78.6242 96.4537 78.7567 96.5316 78.9157 96.5887C79.0747 96.6458 79.2916 96.7107 79.5663 96.7834C79.9422 96.8769 80.2506 96.9755 80.4915 97.0794C80.7325 97.178 80.9373 97.3312 81.106 97.5389C81.2795 97.7466 81.3662 98.0269 81.3662 98.38C81.3662 98.6811 81.2891 98.9537 81.1349 99.1978C80.9855 99.4418 80.7566 99.6365 80.4482 99.7819C80.1398 99.9272 79.7639 99.9999 79.3205 99.9999Z" fill="#333333"/>
<path d="M93.5628 94.4703V99.922H92.6231V97.5856H90.0064V99.922H89.0667V94.4703H90.0064V96.7211H92.6231V94.4703H93.5628Z" fill="#333333"/>
<path d="M101.099 99.0731V99.922H97.3042V94.4703H100.998V95.3192H98.2439V96.7367H100.687V97.57H98.2439V99.0731H101.099Z" fill="#333333"/>
<path d="M107.843 99.922L106.809 98.3255C106.766 98.3307 106.701 98.3333 106.614 98.3333H105.472V99.922H104.532V94.4703H106.614C107.053 94.4703 107.433 94.5482 107.756 94.704C108.084 94.8597 108.334 95.083 108.508 95.3738C108.681 95.6645 108.768 96.0098 108.768 96.4096C108.768 96.8198 108.674 97.1728 108.486 97.4688C108.303 97.7647 108.038 97.9854 107.691 98.1308L108.855 99.922H107.843ZM107.821 96.4096C107.821 96.0617 107.715 95.7943 107.503 95.6074C107.291 95.4205 106.98 95.327 106.571 95.327H105.472V97.4999H106.571C106.98 97.4999 107.291 97.4065 107.503 97.2196C107.715 97.0275 107.821 96.7575 107.821 96.4096Z" fill="#333333"/>
<path d="M116 99.0731V99.922H112.205V94.4703H115.899V95.3192H113.145V96.7367H115.588V97.57H113.145V99.0731H116Z" fill="#333333"/>
<defs>
<linearGradient id="paint0_linear" x1="21.2515" y1="64.4002" x2="39.673" y2="44.9242" gradientUnits="userSpaceOnUse">
<stop stop-color="#0335B0"/>
<stop offset="1" stop-color="#06BDF6"/>
</linearGradient>
<linearGradient id="paint1_linear" x1="89.1687" y1="33.6082" x2="44.7181" y2="20.3392" gradientUnits="userSpaceOnUse">
<stop stop-color="#0335B0"/>
<stop offset="1" stop-color="#06BDF6"/>
</linearGradient>
<linearGradient id="paint2_linear" x1="24.3045" y1="-1.0549e-07" x2="94.0795" y2="31.6813" gradientUnits="userSpaceOnUse">
<stop stop-color="#0335B0"/>
<stop offset="1" stop-color="#06BDF6"/>
</linearGradient>
</defs>
</svg>
